<svg xmlns="http://www.w3.org/2000/svg" width="24" height="24" viewBox="0 0 24 24" fill="none" stroke="hsl(130 100% 50%)" stroke-width="2" stroke-linecap="round" stroke-linejoin="round" class="lucide lucide-dumbbell"><path d="M14.4 14.4 9.6 9.6"/><path d="M18.657 5.343a2 2 0 1 1 2.828 2.828l-1.414 1.414-4.243-4.243 1.414-1.414Z"/><path d="m5.343 18.657a2 2 0 1 1 2.828 2.828l-1.414 1.414-4.243-4.243 1.414-1.414Z"/><path d="M12.7 21.7a2 2 0 0 0-2.8-2.8l-4.24-4.24a2 2 0 0 0 0-2.8l2.82-2.82a2 2 0 0 0 2.8 0l4.24 4.24a2 2 0 0 0 0 2.8z"/><path d="M21.7 12.7a2 2 0 0 0-2.8-2.8l-4.24-4.24a2 2 0 0 0-2.8 0l2.82 2.82a2 2 0 0 0 0 2.8l4.24 4.24a2 2 0 0 0 2.8 0z"/></svg>
